<?xml version="1.0" standalone="no"?>
<!DOCTYPE svg PUBLIC "-//W3C//DTD SVG 20010904//EN"
 "http://www.w3.org/TR/2001/REC-SVG-20010904/DTD/svg10.dtd">
<svg version="1.0" xmlns="http://www.w3.org/2000/svg"
 width="437.000000pt" height="310.000000pt" viewBox="0 0 437.000000 310.000000"
 preserveAspectRatio="xMidYMid meet">
<metadata>
Created by potrace 1.16, written by Peter Selinger 2001-2019
</metadata>
<g transform="translate(0.000000,310.000000) scale(0.100000,-0.100000)"
fill="#000000" stroke="none">
<path d="M2585 2604 c-38 -9 -87 -24 -108 -35 -21 -10 -47 -19 -58 -19 -11 0
-37 -18 -57 -40 l-37 -41 -174 -1 -173 -1 -34 27 -34 27 0 -70 c0 -66 1 -71
28 -83 36 -18 38 -61 2 -66 -13 -2 -29 -11 -35 -19 -10 -13 -19 -14 -66 -3
-84 19 -358 25 -442 10 -188 -33 -349 -136 -462 -295 -94 -132 -137 -251 -161
-443 -8 -69 -18 -130 -21 -135 -3 -4 -16 2 -30 14 l-24 23 5 -49 c14 -137 106
-344 222 -498 35 -47 106 -127 157 -177 457 -451 1100 -531 1460 -182 32 32
63 65 69 75 11 22 18 25 -90 -46 -149 -99 -286 -144 -467 -154 -241 -13 -488
51 -707 184 -80 48 -210 159 -229 195 -10 19 -9 20 10 15 23 -6 20 -1 -77 127
-55 73 -114 183 -142 266 -17 49 -23 98 -27 200 -7 166 12 255 84 400 39 80
61 109 137 186 103 103 192 154 311 179 88 18 470 21 481 4 4 -7 9 -55 12
-108 6 -105 18 -89 21 29 l2 65 28 -91 c37 -124 76 -198 136 -260 97 -99 191
-130 444 -144 95 -6 194 -15 219 -21 111 -25 192 -85 192 -142 0 -63 5 -62
-270 -67 l-252 -5 -24 -28 c-13 -15 -24 -37 -24 -48 0 -30 -13 -17 -56 57 -65
112 -158 178 -295 210 -32 7 -139 18 -237 24 -98 6 -201 17 -228 25 -113 33
-182 106 -210 219 -11 45 -12 26 -13 -179 -1 -126 -4 -260 -8 -297 l-6 -68
281 0 281 0 6 -53 c4 -30 5 -160 3 -290 l-3 -237 283 0 282 0 0 290 0 290 290
0 290 0 0 305 0 305 -287 2 -288 3 -3 261 c-2 232 -1 262 14 268 8 3 59 9 112
12 260 16 494 -77 635 -251 49 -60 124 -203 149 -282 7 -24 17 -43 22 -43 4 0
6 -6 3 -14 -3 -8 1 -17 8 -20 19 -7 29 50 21 116 -35 261 -215 478 -466 562
-142 47 -251 56 -375 30z"/>
<path d="M3290 2602 c0 -10 23 -66 51 -123 59 -120 100 -238 126 -359 25 -123
26 -517 0 -644 -53 -258 -151 -458 -318 -646 -41 -46 -94 -108 -118 -139 -25
-31 -51 -62 -58 -69 -25 -26 -66 -83 -62 -87 10 -10 189 148 261 229 351 403
504 972 387 1441 -38 153 -162 365 -236 404 -29 15 -33 14 -33 -7z"/>
</g>
</svg>
